<svg width="17" height="16" viewBox="0 0 17 16" fill="none" xmlns="http://www.w3.org/2000/svg">
<path d="M8.68552 7.70726C9.74435 7.70726 10.6611 7.3275 11.4104 6.57823C12.1594 5.82909 12.5393 4.91247 12.5393 3.85351C12.5393 2.79492 12.1595 1.87817 11.4102 1.12878C10.661 0.37976 9.74423 0 8.68552 0C7.62656 0 6.70993 0.37976 5.96078 1.1289C5.21164 1.87805 4.83176 2.79479 4.83176 3.85351C4.83176 4.91247 5.21164 5.82921 5.96078 6.57836C6.71017 7.32738 7.62692 7.70726 8.68552 7.70726ZM6.62387 1.79187C7.1987 1.21704 7.87302 0.93762 8.68552 0.93762C9.49789 0.93762 10.1723 1.21704 10.7473 1.79187C11.3221 2.36682 11.6017 3.04125 11.6017 3.85351C11.6017 4.66601 11.3221 5.34032 10.7473 5.91527C10.1723 6.49022 9.49789 6.76964 8.68552 6.76964C7.87326 6.76964 7.19894 6.4901 6.62387 5.91527C6.04892 5.34044 5.76938 4.66601 5.76938 3.85351C5.76938 3.04125 6.04892 2.36682 6.62387 1.79187Z" fill="#000842"/>
<path d="M15.4286 12.3032C15.407 11.9914 15.3633 11.6513 15.2989 11.2922C15.234 10.9304 15.1504 10.5883 15.0503 10.2757C14.9467 9.9526 14.8062 9.63351 14.6323 9.32773C14.452 9.01034 14.2401 8.73398 14.0023 8.50656C13.7536 8.26865 13.4492 8.07736 13.0971 7.93784C12.7463 7.79904 12.3575 7.72873 11.9416 7.72873C11.7783 7.72873 11.6203 7.79575 11.3153 7.99435C11.1275 8.11679 10.9079 8.25839 10.6628 8.41501C10.4532 8.54855 10.1693 8.67367 9.81857 8.78695C9.47641 8.89767 9.129 8.95382 8.78598 8.95382C8.44321 8.95382 8.09579 8.89767 7.75339 8.78695C7.40305 8.6738 7.11899 8.54867 6.90976 8.41513C6.66696 8.25998 6.44724 8.11838 6.25668 7.99423C5.95187 7.79562 5.79391 7.72861 5.63058 7.72861C5.21457 7.72861 4.8259 7.79904 4.47519 7.93796C4.12338 8.07724 3.81882 8.26852 3.56992 8.50668C3.33212 8.73422 3.12021 9.01047 2.94003 9.32773C2.76633 9.63351 2.6257 9.95248 2.52219 10.2758C2.42221 10.5885 2.33859 10.9304 2.27365 11.2922C2.2092 11.6508 2.16562 11.9911 2.14401 12.3035C2.12277 12.6091 2.11203 12.9271 2.11203 13.2484C2.11203 14.0836 2.37753 14.7597 2.90109 15.2584C3.41818 15.7504 4.10226 16 4.93442 16H12.6385C13.4704 16 14.1545 15.7504 14.6717 15.2584C15.1954 14.7601 15.4609 14.0837 15.4609 13.2483C15.4608 12.9259 15.4499 12.6079 15.4286 12.3032ZM14.0252 14.5791C13.6836 14.9043 13.2299 15.0623 12.6384 15.0623H4.93442C4.34274 15.0623 3.88913 14.9043 3.54758 14.5792C3.21249 14.2602 3.04965 13.8248 3.04965 13.2484C3.04965 12.9486 3.05954 12.6525 3.07932 12.3684C3.0986 12.0896 3.13803 11.7833 3.1965 11.4578C3.25424 11.1364 3.32773 10.8348 3.41513 10.5617C3.49899 10.2999 3.61337 10.0406 3.75522 9.79086C3.89059 9.55282 4.04636 9.3486 4.21823 9.18405C4.379 9.03012 4.58163 8.90414 4.8204 8.80966C5.04123 8.72226 5.2894 8.67441 5.55881 8.6672C5.59164 8.68466 5.65012 8.71799 5.74484 8.77975C5.93759 8.90536 6.15976 9.04867 6.40536 9.20553C6.68222 9.38205 7.03891 9.54147 7.46506 9.67904C7.90073 9.81991 8.34506 9.89144 8.7861 9.89144C9.22714 9.89144 9.6716 9.81991 10.107 9.67917C10.5335 9.54135 10.8901 9.38205 11.1673 9.20529C11.4187 9.04464 11.6346 8.90548 11.8274 8.77975C11.9221 8.71811 11.9806 8.68466 12.0134 8.6672C12.2829 8.67441 12.5311 8.72226 12.752 8.80966C12.9907 8.90414 13.1933 9.03024 13.3541 9.18405C13.526 9.34848 13.6817 9.5527 13.8171 9.79098C13.9591 10.0406 14.0736 10.3 14.1573 10.5616C14.2448 10.835 14.3185 11.1366 14.3761 11.4577C14.4344 11.7838 14.474 12.0902 14.4933 12.3685V12.3687C14.5132 12.6518 14.5232 12.9477 14.5233 13.2484C14.5232 13.8249 14.3603 14.2602 14.0252 14.5791Z" fill="#000842"/>
</svg>
