<svg width="44" height="42" viewBox="0 0 44 42" fill="none" xmlns="http://www.w3.org/2000/svg">
<path d="M40.497 21C40.497 31.143 32.2196 39.375 22 39.375C11.7804 39.375 3.50293 31.143 3.50293 21C3.50293 10.8478 11.7804 2.625 22 2.625C32.2196 2.625 40.497 10.8478 40.497 21Z" fill="#283544"/>
<path d="M30.67 16.3503C30.569 16.4088 28.1662 17.6433 28.1662 20.3803C28.2795 23.5017 31.1985 24.5964 31.2485 24.5964C31.1985 24.6549 30.8078 26.0876 29.6507 27.5895C28.7325 28.8832 27.7132 30.1875 26.1655 30.1875C24.6933 30.1875 24.1648 29.3253 22.4661 29.3253C20.6418 29.3253 20.1256 30.1875 18.7289 30.1875C17.1812 30.1875 16.0865 28.8133 15.1181 27.5317C13.8601 25.8544 12.7908 23.2222 12.7531 20.6948C12.7276 19.3555 13.005 18.039 13.7091 16.9208C14.7029 15.3597 16.4771 14.3 18.4146 14.2651C19.8991 14.2187 21.2204 15.2086 22.1263 15.2086C22.9946 15.2086 24.6178 14.2651 26.4544 14.2651C27.2471 14.2658 29.3611 14.4869 30.67 16.3503ZM22.0008 13.9977C21.7365 12.7746 22.4661 11.5516 23.1456 10.7714C24.0138 9.82789 25.3851 9.1875 26.5676 9.1875C26.6431 10.4106 26.1647 11.6101 25.3096 12.4837C24.5423 13.4272 23.2211 14.1374 22.0008 13.9977Z" fill="white"/>
</svg>
