<svg width="43" height="42" viewBox="0 0 43 42" fill="none" xmlns="http://www.w3.org/2000/svg">
<path d="M40.3595 21.4081C40.3595 19.8973 40.2336 18.7948 39.9611 17.6515H22.24V24.4705H32.6419C32.4322 26.1652 31.2998 28.7173 28.7831 30.4322L28.7478 30.6605L34.3509 34.8862L34.7391 34.924C38.3042 31.7185 40.3595 27.0022 40.3595 21.4081Z" fill="#4285F4"/>
<path d="M22.2388 39.375C27.3348 39.375 31.613 37.7416 34.7379 34.9241L28.7819 30.4323C27.1881 31.5144 25.0489 32.2698 22.2388 32.2698C17.2476 32.2698 13.0114 29.0645 11.5012 24.634L11.2799 24.6523L5.45376 29.042L5.37756 29.2482C8.48133 35.2507 14.8567 39.375 22.2388 39.375Z" fill="#34A853"/>
<path d="M11.5023 24.6341C11.1038 23.4908 10.8732 22.2657 10.8732 20.9999C10.8732 19.734 11.1038 18.5091 11.4813 17.3658L11.4708 17.1223L5.5716 12.6622L5.37859 12.7515C4.09937 15.2424 3.36536 18.0395 3.36536 20.9999C3.36536 23.9604 4.09937 26.7573 5.37859 29.2482L11.5023 24.6341Z" fill="#FBBC05"/>
<path d="M22.2389 9.72995C25.7831 9.72995 28.1738 11.2204 29.537 12.4659L34.8638 7.4025C31.5923 4.44209 27.335 2.625 22.2389 2.625C14.8568 2.625 8.48135 6.74913 5.37756 12.7516L11.4803 17.3658C13.0114 12.9354 17.2477 9.72995 22.2389 9.72995Z" fill="#EB4335"/>
</svg>
