<svg width="16" height="16" viewBox="0 0 16 16" fill="none" xmlns="http://www.w3.org/2000/svg">
<path d="M1.40625 2.51905H14.5938C15.3692 2.51905 16 3.1499 16 3.9253V12.0747C16 12.8501 15.3692 13.481 14.5938 13.481H1.40625C0.630844 13.481 0 12.8501 0 12.0747V3.9253C0 3.1499 0.630844 2.51905 1.40625 2.51905ZM1.58978 3.45655L1.77747 3.61284L7.44206 8.32974C7.76538 8.59893 8.23469 8.59893 8.55794 8.32974L14.2225 3.61284L14.4102 3.45655H1.58978ZM15.0625 4.13337L10.4471 7.97659L15.0625 11.0482V4.13337ZM1.40625 12.5435H14.5938C14.8203 12.5435 15.0097 12.382 15.0531 12.1681L9.69544 8.60249L9.15781 9.05018C8.82238 9.32949 8.41116 9.46915 7.99997 9.46915C7.58878 9.46915 7.17759 9.32949 6.84212 9.05018L6.3045 8.60249L0.946875 12.1681C0.990313 12.382 1.17975 12.5435 1.40625 12.5435ZM0.9375 11.0482L5.55287 7.97662L0.9375 4.13337V11.0482Z" fill="#000842"/>
</svg>
