<svg width="16" height="16" viewBox="0 0 16 16" fill="none" xmlns="http://www.w3.org/2000/svg">
<path d="M12.2383 6.80432V4.27051C12.2451 3.12402 11.7872 2.02162 10.9697 1.21772C10.1794 0.430782 9.1448 0 8.04919 0C8.03223 0 8.01188 0 7.99492 0C5.65784 0.00339199 3.75833 1.91647 3.75833 4.27051V6.80432C2.87641 6.90948 2.23193 7.64893 2.23193 8.54441V14.2362C2.23193 15.2029 3.00531 16 3.97202 16H12.028C12.9947 16 13.7681 15.2029 13.7681 14.2362V8.54441C13.7647 7.65232 13.1202 6.90948 12.2383 6.80432ZM4.43333 4.27051H4.43672C4.43672 2.28959 6.03435 0.668221 7.99831 0.668221H8.0017C8.9345 0.664829 9.82998 1.03456 10.4914 1.6926C11.18 2.37439 11.5633 3.30379 11.5565 4.27051V6.80772H10.8103V4.27051C10.8171 3.50053 10.5118 2.76108 9.96566 2.21836C9.45008 1.70278 8.75133 1.41107 8.02205 1.41107H8.0017C6.44139 1.41107 5.17957 2.69324 5.17957 4.26712V6.80772H4.43333V4.27051ZM10.1353 4.27051V6.80772H5.86136V4.27051C5.86136 3.06975 6.8179 2.09286 8.00509 2.09286H8.02545C8.57495 2.09286 9.1041 2.31333 9.49418 2.70341C9.908 3.11724 10.142 3.6837 10.1353 4.27051ZM13.1202 14.2463C13.1202 14.8399 12.6385 15.3216 12.0449 15.3216H3.98559C3.39199 15.3216 2.91033 14.8399 2.91033 14.2463V8.56137C2.91033 7.96778 3.39199 7.48611 3.98559 7.48611H12.0449C12.6385 7.48611 13.1202 7.96778 13.1202 8.56137V14.2463Z" fill="#000842"/>
<path d="M9.17194 11.1936C9.02269 10.6678 8.54442 10.3083 7.99831 10.3083C7.32331 10.3083 6.7738 10.8544 6.7738 11.5328C6.7738 12.0789 7.13335 12.5572 7.65911 12.7064V13.6562C7.65911 13.8427 7.81175 13.9954 7.99831 13.9954C8.18487 13.9954 8.33751 13.8427 8.33751 13.6562V12.7064C8.98538 12.5198 9.36189 11.8414 9.17194 11.1936ZM7.99831 12.0755C7.69642 12.0755 7.4522 11.8313 7.4522 11.5294C7.4522 11.2275 7.69642 10.9833 7.99831 10.9833C8.3002 10.9833 8.54442 11.2275 8.54442 11.5294C8.54442 11.8313 8.3002 12.0755 7.99831 12.0755Z" fill="#000842"/>
</svg>
